<svg version="1.1" id="Layer_1" xmlns="http://www.w3.org/2000/svg" xmlns:xlink="http://www.w3.org/1999/xlink" x="0px" y="0px"
	 width="100%" viewBox="0 0 256 256" enable-background="new 0 0 256 256" xml:space="preserve">
<path fill="#000000" opacity="0.0" stroke="none" 
	d="
M174.000000,257.000000 
	C116.000000,257.000000 58.500008,257.000000 1.000008,257.000000 
	C1.000005,171.666672 1.000005,86.333351 1.000003,1.000019 
	C86.333321,1.000013 171.666641,1.000013 257.000000,1.000006 
	C257.000000,86.333313 257.000000,171.666626 257.000000,256.999969 
	C229.500000,257.000000 202.000000,257.000000 174.000000,257.000000 
M208.211243,172.636902 
	C214.138168,166.291214 214.295532,166.127151 208.354767,160.429413 
	C198.652847,151.124405 188.703278,142.078018 178.893799,132.884552 
	C168.322693,122.977280 157.831238,112.984718 147.221527,103.119156 
	C143.930405,100.058861 140.366852,97.291565 136.839966,94.315826 
	C163.010956,69.967583 188.448868,46.301346 213.584702,22.916162 
	C212.792862,20.493801 212.145035,18.511980 211.428665,16.320484 
	C211.097336,17.291676 210.866470,17.968420 210.588608,18.782894 
	C204.584457,10.510786 201.634949,8.331235 195.610443,13.458815 
	C188.882919,19.184750 182.799820,25.661413 176.322861,31.689499 
	C162.309799,44.731422 148.247574,57.720802 134.158569,70.680717 
	C127.314529,76.976265 120.345924,83.136200 113.470573,89.397995 
	C109.516563,92.999153 109.654091,95.057198 114.010147,99.060844 
	C129.562195,113.354713 145.169495,127.588921 160.661682,141.947342 
	C172.825378,153.220840 184.846481,164.648163 196.938705,175.998886 
	C199.984116,178.857529 203.212250,178.547958 205.732574,175.205688 
	C206.307236,174.443634 206.918732,173.709366 208.211243,172.636902 
M45.641693,249.121964 
	C47.804562,253.412231 49.713291,250.620270 51.597794,248.876450 
	C61.061485,240.119186 70.545715,231.383545 79.946945,222.559570 
	C87.720749,215.263092 95.323402,207.783707 103.125938,200.518600 
	C108.776985,195.256790 114.679993,190.266571 120.380264,185.056381 
	C125.636429,180.252106 130.752823,175.295288 135.969360,170.447144 
	C138.409073,168.179703 138.994019,166.588715 135.735641,164.072281 
	C130.801804,160.261856 126.477547,155.664154 121.877213,151.419464 
	C113.383682,143.582581 104.856689,135.781876 96.381760,127.924957 
	C82.116364,114.699867 67.824806,101.502083 53.659431,88.170441 
	C47.783031,82.639915 47.917500,82.496292 42.117199,88.390320 
	C41.533394,88.983559 40.976730,89.604759 40.374683,90.178589 
	C35.348866,94.968826 35.326332,94.987648 40.365936,99.781097 
	C52.875389,111.679558 65.344559,123.621452 77.952690,135.414642 
	C84.102516,141.166962 90.564789,146.583847 96.814850,152.230896 
	C102.042931,156.954559 107.168076,161.792175 112.845238,167.048203 
	C104.849930,174.559448 97.293945,181.662674 89.732452,188.760025 
	C84.761398,193.425964 79.817406,198.121460 74.800140,202.737259 
	C61.853046,214.648300 48.871998,226.522446 34.886162,239.344971 
	C38.408085,242.725693 41.649124,245.836792 45.641693,249.121964 
M154.500000,251.001053 
	C177.923935,251.001053 201.347870,251.001053 224.711578,251.001053 
	C224.711578,245.015778 224.711578,239.611755 224.711578,234.287689 
	C187.691345,234.287689 150.961227,234.287689 114.288162,234.287689 
	C114.288162,239.984558 114.288162,245.388596 114.288162,251.001053 
	C127.550896,251.001053 140.525452,251.001053 154.500000,251.001053 
z"/>
<path fill="#01F98F" opacity="1.000000" stroke="none" 
	d="
M207.862259,172.799606 
	C206.918732,173.709366 206.307236,174.443634 205.732574,175.205688 
	C203.212250,178.547958 199.984116,178.857529 196.938705,175.998886 
	C184.846481,164.648163 172.825378,153.220840 160.661682,141.947342 
	C145.169495,127.588921 129.562195,113.354713 114.010147,99.060844 
	C109.654091,95.057198 109.516563,92.999153 113.470573,89.397995 
	C120.345924,83.136200 127.314529,76.976265 134.158569,70.680717 
	C148.247574,57.720802 162.309799,44.731422 176.322861,31.689499 
	C182.799820,25.661413 188.882919,19.184750 195.610443,13.458815 
	C201.634949,8.331235 204.584457,10.510786 210.588608,18.782894 
	C210.866470,17.968420 211.097336,17.291676 211.428665,16.320484 
	C212.145035,18.511980 212.792862,20.493801 213.584702,22.916162 
	C188.448868,46.301346 163.010956,69.967583 136.839966,94.315826 
	C140.366852,97.291565 143.930405,100.058861 147.221527,103.119156 
	C157.831238,112.984718 168.322693,122.977280 178.893799,132.884552 
	C188.703278,142.078018 198.652847,151.124405 208.354767,160.429413 
	C214.295532,166.127151 214.138168,166.291214 207.862259,172.799606 
z"/>
<path fill="#FBFFFD" opacity="1.000000" stroke="none" 
	d="
M45.265926,249.034943 
	C41.649124,245.836792 38.408085,242.725693 34.886162,239.344971 
	C48.871998,226.522446 61.853046,214.648300 74.800140,202.737259 
	C79.817406,198.121460 84.761398,193.425964 89.732452,188.760025 
	C97.293945,181.662674 104.849930,174.559448 112.845238,167.048203 
	C107.168076,161.792175 102.042931,156.954559 96.814850,152.230896 
	C90.564789,146.583847 84.102516,141.166962 77.952690,135.414642 
	C65.344559,123.621452 52.875389,111.679558 40.365936,99.781097 
	C35.326332,94.987648 35.348866,94.968826 40.374683,90.178589 
	C40.976730,89.604759 41.533394,88.983559 42.117199,88.390320 
	C47.917500,82.496292 47.783031,82.639915 53.659431,88.170441 
	C67.824806,101.502083 82.116364,114.699867 96.381760,127.924957 
	C104.856689,135.781876 113.383682,143.582581 121.877213,151.419464 
	C126.477547,155.664154 130.801804,160.261856 135.735641,164.072281 
	C138.994019,166.588715 138.409073,168.179703 135.969360,170.447144 
	C130.752823,175.295288 125.636429,180.252106 120.380264,185.056381 
	C114.679993,190.266571 108.776985,195.256790 103.125938,200.518600 
	C95.323402,207.783707 87.720749,215.263092 79.946945,222.559570 
	C70.545715,231.383545 61.061485,240.119186 51.597794,248.876450 
	C49.713291,250.620270 47.804562,253.412231 45.265926,249.034943 
z"/>
<path fill="#FFFFFC" opacity="1.000000" stroke="none" 
	d="
M154.000000,251.001053 
	C140.525452,251.001053 127.550896,251.001053 114.288162,251.001053 
	C114.288162,245.388596 114.288162,239.984558 114.288162,234.287689 
	C150.961227,234.287689 187.691345,234.287689 224.711578,234.287689 
	C224.711578,239.611755 224.711578,245.015778 224.711578,251.001053 
	C201.347870,251.001053 177.923935,251.001053 154.000000,251.001053 
z"/>
</svg>